<svg width="20" height="20" viewBox="0 0 20 20" fill="none" xmlns="http://www.w3.org/2000/svg">
<g id="Icon/Social network/YouTube">
<path id="YouTube" fill-rule="evenodd" clip-rule="evenodd" d="M10 2.8C7.102 2.8 3.3406 3.52935 3.3406 3.52935L3.33113 3.54022C2.01123 3.75225 1 4.89148 1 6.27697V13.7217C1.00266 15.0899 1.99367 16.2523 3.33789 16.4652L3.3406 16.4693C3.3406 16.4693 7.102 17.2 10 17.2C12.898 17.2 16.6594 16.4693 16.6594 16.4693C18.0065 16.2555 18.9986 15.0914 19 13.723V6.27697C18.998 4.90956 18.0068 3.74641 16.6621 3.53343C16.6594 3.52935 12.898 2.8 10 2.8ZM8.2 6.85L13.6 10L8.2 13.15V6.85Z" fill="white"/>
</g>
</svg>
